<svg xmlns="http://www.w3.org/2000/svg" version="1.1" xmlns:xlink="http://www.w3.org/1999/xlink" xmlns:svgjs="http://svgjs.dev/svgjs" width="1000" height="623" viewBox="0 0 1000 623"><g transform="matrix(1,0,0,1,-0.6060606060606233,0.2522267206477409)"><svg viewBox="0 0 396 247" data-background-color="#ffffff" preserveAspectRatio="xMidYMid meet" height="623" width="1000" xmlns="http://www.w3.org/2000/svg" xmlns:xlink="http://www.w3.org/1999/xlink"><g id="tight-bounds" transform="matrix(1,0,0,1,0.2400000000000091,-0.09999999999999432)"><svg viewBox="0 0 395.52 247.2" height="247.2" width="395.52"><g><svg></svg></g><g><svg viewBox="0 0 395.52 247.2" height="247.2" width="395.52"><g transform="matrix(1,0,0,1,75.54432,93.75215798319327)"><svg viewBox="0 0 244.43135999999998 59.69568403361344" height="59.69568403361344" width="244.43135999999998"><g><svg viewBox="0 0 244.43135999999998 59.69568403361344" height="59.69568403361344" width="244.43135999999998"><g><svg viewBox="0 0 244.43135999999998 59.69568403361344" height="59.69568403361344" width="244.43135999999998"><g><svg viewBox="0 0 244.43135999999998 59.69568403361344" height="59.69568403361344" width="244.43135999999998"><g id="textblocktransform"><svg viewBox="0 0 244.43135999999998 59.69568403361344" height="59.69568403361344" width="244.43135999999998" id="textblock"><g><svg viewBox="0 0 244.43135999999998 59.69568403361344" height="59.69568403361344" width="244.43135999999998"><g transform="matrix(1,0,0,1,0,0)"><svg width="244.43135999999998" viewBox="1.7000000476837158 -47 285.5699768066406 69.75" height="59.69568403361344" data-palette-color="#096a2e"><path d="M16.35 0.4Q9.7 0.4 5.7-2.13 1.7-4.65 1.7-9.85L1.7-9.85Q1.7-12.6 2.65-14.05 3.6-15.5 5.45-15.5L5.45-15.5Q6.8-15.5 7.65-14.8 8.5-14.1 8.5-13L8.5-13Q8.5-12 8.35-11.25L8.35-11.25Q8.35-11.05 8.28-10.55 8.2-10.05 8.2-9.5L8.2-9.5Q8.2-7.25 10.48-6.15 12.75-5.05 16.85-5.05L16.85-5.05Q21.1-5.05 23.5-6.58 25.9-8.1 25.9-10.85L25.9-10.85Q25.9-12.55 24.8-13.78 23.7-15 22.05-15.83 20.4-16.65 17.4-17.85L17.4-17.85Q13.55-19.35 11.13-20.7 8.7-22.05 6.98-24.38 5.25-26.7 5.25-30.15L5.25-30.15Q5.25-33.75 7.18-36.55 9.1-39.35 12.73-40.9 16.35-42.45 21.25-42.45L21.25-42.45Q24.9-42.45 27.95-41.38 31-40.3 32.83-38.1 34.65-35.9 34.65-32.7L34.65-32.7Q34.65-29.55 33.7-27.95 32.75-26.35 30.9-26.35L30.9-26.35Q29.6-26.35 28.73-27.15 27.85-27.95 27.85-29.05L27.85-29.05Q27.85-30 28-30.8L28-30.8Q28.15-32.3 28.15-32.7L28.15-32.7Q28.15-34.8 26.1-35.9 24.05-37 21-37L21-37Q16.7-37 14.43-35.43 12.15-33.85 12.15-31L12.15-31Q12.15-29.1 13.33-27.75 14.5-26.4 16.25-25.5 18-24.6 21.15-23.35L21.15-23.35Q24.95-21.8 27.25-20.55 29.55-19.3 31.18-17.15 32.8-15 32.8-11.85L32.8-11.85Q32.8-5.95 28.33-2.78 23.85 0.4 16.35 0.4L16.35 0.4ZM62.55-15.35Q63.2-15.35 63.55-14.7 63.9-14.05 63.9-13.05L63.9-13.05Q63.9-10.65 62.45-10.2L62.45-10.2Q59.45-9.15 55.85-9L55.85-9Q54.9-4.8 52.1-2.27 49.3 0.25 45.75 0.25L45.75 0.25Q42.75 0.25 40.62-1.2 38.5-2.65 37.4-5.05 36.3-7.45 36.3-10.25L36.3-10.25Q36.3-14.05 37.75-17.03 39.2-20 41.75-21.68 44.3-23.35 47.4-23.35L47.4-23.35Q51.2-23.35 53.52-20.73 55.85-18.1 56.25-14.25L56.25-14.25Q58.6-14.4 61.85-15.25L61.85-15.25Q62.25-15.35 62.55-15.35L62.55-15.35ZM46.15-5.05Q47.75-5.05 48.92-6.35 50.1-7.65 50.5-10.1L50.5-10.1Q48.95-11.15 48.12-12.85 47.3-14.55 47.3-16.45L47.3-16.45Q47.3-17.25 47.45-18.05L47.45-18.05 47.2-18.05Q45.2-18.05 43.87-16.13 42.55-14.2 42.55-10.7L42.55-10.7Q42.55-7.95 43.62-6.5 44.7-5.05 46.15-5.05L46.15-5.05ZM78.55-11.15Q79.2-11.15 79.57-10.55 79.95-9.95 79.95-8.9L79.95-8.9Q79.95-6.9 79-5.8L79-5.8Q76.85-3.15 74.32-1.45 71.8 0.25 68.6 0.25L68.6 0.25Q64.2 0.25 62.07-3.75 59.95-7.75 59.95-14.1L59.95-14.1Q59.95-20.2 61.52-28 63.1-35.8 66.17-41.4 69.25-47 73.5-47L73.5-47Q75.9-47 77.27-44.78 78.65-42.55 78.65-38.4L78.65-38.4Q78.65-32.45 75.35-24.6 72.05-16.75 66.4-9.05L66.4-9.05Q66.75-7 67.55-6.13 68.35-5.25 69.65-5.25L69.65-5.25Q71.7-5.25 73.25-6.43 74.8-7.6 77.2-10.45L77.2-10.45Q77.8-11.15 78.55-11.15L78.55-11.15ZM72.4-42.05Q71.25-42.05 69.8-37.9 68.35-33.75 67.25-27.6 66.15-21.45 66.05-15.8L66.05-15.8Q69.6-21.65 71.7-27.53 73.8-33.4 73.8-38.25L73.8-38.25Q73.8-42.05 72.4-42.05L72.4-42.05ZM98.19-11.15Q98.84-11.15 99.22-10.55 99.59-9.95 99.59-8.9L99.59-8.9Q99.59-6.9 98.64-5.8L98.64-5.8Q96.79-3.55 93.42-1.65 90.04 0.25 86.19 0.25L86.19 0.25Q80.94 0.25 78.04-2.6 75.14-5.45 75.14-10.4L75.14-10.4Q75.14-13.85 76.59-16.82 78.04-19.8 80.62-21.55 83.19-23.3 86.44-23.3L86.44-23.3Q89.34-23.3 91.09-21.58 92.84-19.85 92.84-16.9L92.84-16.9Q92.84-13.45 90.37-10.98 87.89-8.5 81.99-7.05L81.99-7.05Q83.24-4.75 86.74-4.75L86.74-4.75Q88.99-4.75 91.87-6.33 94.74-7.9 96.84-10.45L96.84-10.45Q97.44-11.15 98.19-11.15L98.19-11.15ZM85.59-18.4Q83.74-18.4 82.47-16.25 81.19-14.1 81.19-11.05L81.19-11.05 81.19-10.95Q84.14-11.65 85.84-13.05 87.54-14.45 87.54-16.3L87.54-16.3Q87.54-17.25 87.02-17.82 86.49-18.4 85.59-18.4L85.59-18.4ZM104.84 1.35Q102.24 1.35 100.87 0.15 99.49-1.05 99.49-2.55L99.49-2.55Q99.49-3.85 100.44-4.8 101.39-5.75 103.24-5.75L103.24-5.75Q103.89-5.75 104.77-5.63 105.64-5.5 106.09-5.45L106.09-5.45Q106.04-6.75 105.52-7.9 104.99-9.05 104.19-10.13 103.39-11.2 102.69-12L102.69-12Q101.14-9.05 99.62-7.1 98.09-5.15 96.29-3.4L96.29-3.4Q95.39-2.5 94.39-2.5L94.39-2.5Q93.59-2.5 93.09-3.08 92.59-3.65 92.59-4.5L92.59-4.5Q92.59-5.5 93.29-6.35L93.29-6.35 93.94-7.15Q96.69-10.55 98.09-12.75L98.09-12.75Q98.94-14.2 100.09-16.63 101.24-19.05 102.34-21.65L102.34-21.65Q103.29-23.85 106.29-23.85L106.29-23.85Q107.69-23.85 108.24-23.6 108.79-23.35 108.79-22.8L108.79-22.8Q108.79-22.5 108.59-21.85 108.39-21.2 108.04-20.55L108.04-20.55Q107.14-18.75 107.14-17.5L107.14-17.5Q107.14-16.75 107.67-15.85 108.19-14.95 109.29-13.6L109.29-13.6Q110.89-11.5 111.72-10.03 112.54-8.55 112.54-6.8L112.54-6.8Q112.54-6.3 112.44-5.4L112.44-5.4Q114.89-6.35 118.19-10.45L118.19-10.45Q118.79-11.15 119.54-11.15L119.54-11.15Q120.19-11.15 120.57-10.55 120.94-9.95 120.94-8.9L120.94-8.9Q120.94-7 119.99-5.8L119.99-5.8Q117.49-2.7 115.22-1.58 112.94-0.45 109.59-0.35L109.59-0.35Q107.59 1.35 104.84 1.35L104.84 1.35ZM142.39-15.35Q143.04-15.35 143.39-14.7 143.74-14.05 143.74-13.05L143.74-13.05Q143.74-10.65 142.29-10.2L142.29-10.2Q139.29-9.15 135.69-9L135.69-9Q134.74-4.8 131.94-2.27 129.14 0.25 125.59 0.25L125.59 0.25Q122.59 0.25 120.46-1.2 118.34-2.65 117.24-5.05 116.14-7.45 116.14-10.25L116.14-10.25Q116.14-14.05 117.59-17.03 119.04-20 121.59-21.68 124.14-23.35 127.24-23.35L127.24-23.35Q131.04-23.35 133.36-20.73 135.69-18.1 136.09-14.25L136.09-14.25Q138.44-14.4 141.69-15.25L141.69-15.25Q142.09-15.35 142.39-15.35L142.39-15.35ZM125.99-5.05Q127.59-5.05 128.76-6.35 129.94-7.65 130.34-10.1L130.34-10.1Q128.79-11.15 127.96-12.85 127.14-14.55 127.14-16.45L127.14-16.45Q127.14-17.25 127.29-18.05L127.29-18.05 127.04-18.05Q125.04-18.05 123.71-16.13 122.39-14.2 122.39-10.7L122.39-10.7Q122.39-7.95 123.46-6.5 124.54-5.05 125.99-5.05L125.99-5.05ZM159.39-14Q160.79-14 160.79-11.9L160.79-11.9Q160.79-7.95 154.59-7.95L154.59-7.95Q153.39-7.95 151.14-8.4L151.14-8.4Q151.79-5.3 152.21-1.53 152.64 2.25 152.64 4.7L152.64 4.7Q152.64 10.1 150.89 12.95 149.14 15.8 146.29 15.8L146.29 15.8Q142.69 15.8 141.16 10.7 139.64 5.6 139.64-4.7L139.64-4.7Q139.64-14.3 141.71-24.18 143.79-34.05 147.41-40.53 151.04-47 155.39-47L155.39-47Q157.74-47 159.06-44.9 160.39-42.8 160.39-39.25L160.39-39.25Q160.39-27.5 146.34-13.65L146.34-13.65Q145.84-8.75 145.84-5.05L145.84-5.05Q145.84 0.1 146.19 5.53 146.54 10.95 147.34 10.95L147.34 10.95Q148.84 10.95 148.84 5.75L148.84 5.75Q148.84 1.85 148.31-1.8 147.79-5.45 146.89-9.5L146.89-9.5Q146.84-10.15 147.31-11.15 147.79-12.15 148.49-12.9 149.19-13.65 149.74-13.65L149.74-13.65Q150.74-13.65 152.14-13.55L152.14-13.55Q152.59-13.5 153.19-13.5L153.19-13.5Q155.19-13.5 157.64-13.85L157.64-13.85Q158.04-13.9 158.49-13.95 158.94-14 159.39-14L159.39-14ZM154.34-42.05Q153.44-42.05 152.11-39 150.79-35.95 149.49-30.93 148.19-25.9 147.24-20.3L147.24-20.3Q151.24-24.85 153.39-29.78 155.54-34.7 155.59-39L155.59-39Q155.59-42.05 154.34-42.05L154.34-42.05ZM170.28 1.35Q167.68 1.35 166.31 0.15 164.93-1.05 164.93-2.55L164.93-2.55Q164.93-3.85 165.88-4.8 166.83-5.75 168.68-5.75L168.68-5.75Q169.33-5.75 170.21-5.63 171.08-5.5 171.53-5.45L171.53-5.45Q171.48-6.75 170.96-7.9 170.43-9.05 169.63-10.13 168.83-11.2 168.13-12L168.13-12Q166.58-9.05 165.06-7.1 163.53-5.15 161.73-3.4L161.73-3.4Q160.83-2.5 159.83-2.5L159.83-2.5Q159.03-2.5 158.53-3.08 158.03-3.65 158.03-4.5L158.03-4.5Q158.03-5.5 158.73-6.35L158.73-6.35 159.38-7.15Q162.13-10.55 163.53-12.75L163.53-12.75Q164.38-14.2 165.53-16.63 166.68-19.05 167.78-21.65L167.78-21.65Q168.73-23.85 171.73-23.85L171.73-23.85Q173.13-23.85 173.68-23.6 174.23-23.35 174.23-22.8L174.23-22.8Q174.23-22.5 174.03-21.85 173.83-21.2 173.48-20.55L173.48-20.55Q172.58-18.75 172.58-17.5L172.58-17.5Q172.58-16.75 173.11-15.85 173.63-14.95 174.73-13.6L174.73-13.6Q176.33-11.5 177.16-10.03 177.98-8.55 177.98-6.8L177.98-6.8Q177.98-6.3 177.88-5.4L177.88-5.4Q180.33-6.35 183.63-10.45L183.63-10.45Q184.23-11.15 184.98-11.15L184.98-11.15Q185.63-11.15 186.01-10.55 186.38-9.95 186.38-8.9L186.38-8.9Q186.38-7 185.43-5.8L185.43-5.8Q182.93-2.7 180.66-1.58 178.38-0.45 175.03-0.35L175.03-0.35Q173.03 1.35 170.28 1.35L170.28 1.35ZM204.63-11.15Q205.28-11.15 205.66-10.55 206.03-9.95 206.03-8.9L206.03-8.9Q206.03-6.9 205.08-5.8L205.08-5.8Q202.93-3.15 200.38-1.45 197.83 0.25 194.53 0.25L194.53 0.25Q184.33 0.25 184.33-14.1L184.33-14.1Q184.33-16.3 184.48-18.55L184.48-18.55 182.53-18.55Q181.03-18.55 180.51-19.1 179.98-19.65 179.98-20.85L179.98-20.85Q179.98-23.65 182.23-23.65L182.23-23.65 185.08-23.65Q185.93-29.15 187.68-33.7 189.43-38.25 191.91-40.95 194.38-43.65 197.23-43.65L197.23-43.65Q199.33-43.65 200.53-41.8 201.73-39.95 201.73-37.15L201.73-37.15Q201.73-29.4 195.23-23.65L195.23-23.65 200.83-23.65Q201.63-23.65 201.98-23.3 202.33-22.95 202.33-22L202.33-22Q202.33-18.55 196.68-18.55L196.68-18.55 190.58-18.55Q190.48-16.05 190.48-14.65L190.48-14.65Q190.48-9.45 191.71-7.35 192.93-5.25 195.58-5.25L195.58-5.25Q197.73-5.25 199.38-6.55 201.03-7.85 203.28-10.45L203.28-10.45Q203.88-11.15 204.63-11.15L204.63-11.15ZM195.88-38.85Q195.13-38.85 194.21-36.98 193.28-35.1 192.46-31.78 191.63-28.45 191.08-24.4L191.08-24.4Q194.03-26.95 195.51-30.13 196.98-33.3 196.98-35.9L196.98-35.9Q196.98-38.85 195.88-38.85L195.88-38.85ZM227.58-11.05Q228.23-11.05 228.6-10.43 228.98-9.8 228.98-8.85L228.98-8.85Q228.98-7.7 228.63-7.05 228.28-6.4 227.53-5.9L227.53-5.9 217.93 0.55Q216.03 10.9 212.95 16.82 209.88 22.75 205.13 22.75L205.13 22.75Q202.58 22.75 200.98 21.18 199.38 19.6 199.38 17.05L199.38 17.05Q199.38 14.7 200.45 12.25 201.53 9.8 204.45 6.63 207.38 3.45 212.73-0.65L212.73-0.65 212.88-1.8Q213.23-3.65 213.68-7.1L213.68-7.1Q212.68-3.5 210.88-1.63 209.08 0.25 207.08 0.25L207.08 0.25Q204.83 0.25 203.4-1.83 201.98-3.9 201.98-7L201.98-7Q201.98-10.75 202.48-13.88 202.98-17 204.13-20.5L204.13-20.5Q204.63-22 205.53-22.65 206.43-23.3 208.38-23.3L208.38-23.3Q209.48-23.3 209.9-22.95 210.33-22.6 210.33-21.9L210.33-21.9Q210.33-21.5 209.78-19.2L209.78-19.2Q209.28-17.35 208.98-15.85L208.98-15.85Q208.58-13.8 208.28-11.93 207.98-10.05 207.98-8.85L207.98-8.85Q207.98-6.95 209.03-6.95L209.03-6.95Q209.78-6.95 210.9-8.45 212.03-9.95 213.3-13 214.58-16.05 215.78-20.5L215.78-20.5Q216.18-22 217-22.65 217.83-23.3 219.48-23.3L219.48-23.3Q220.63-23.3 221.08-23 221.53-22.7 221.53-22L221.53-22Q221.53-20.75 220.23-13.4L220.23-13.4 218.93-5.35Q222.78-8.25 226.43-10.65L226.43-10.65Q227.08-11.05 227.58-11.05L227.58-11.05ZM205.68 17.9Q206.93 17.9 208.48 15 210.03 12.1 211.58 5.35L211.58 5.35Q207.73 8.6 206 11.28 204.28 13.95 204.28 15.95L204.28 15.95Q204.28 16.8 204.6 17.35 204.93 17.9 205.68 17.9L205.68 17.9ZM244.88-11.15Q245.53-11.15 245.9-10.55 246.28-9.95 246.28-8.9L246.28-8.9Q246.28-6.9 245.33-5.8L245.33-5.8Q243.18-3.15 240.65-1.45 238.13 0.25 234.93 0.25L234.93 0.25Q230.53 0.25 228.4-3.75 226.28-7.75 226.28-14.1L226.28-14.1Q226.28-20.2 227.85-28 229.43-35.8 232.5-41.4 235.58-47 239.83-47L239.83-47Q242.23-47 243.6-44.78 244.98-42.55 244.98-38.4L244.98-38.4Q244.98-32.45 241.68-24.6 238.38-16.75 232.73-9.05L232.73-9.05Q233.08-7 233.88-6.13 234.68-5.25 235.98-5.25L235.98-5.25Q238.03-5.25 239.58-6.43 241.13-7.6 243.53-10.45L243.53-10.45Q244.13-11.15 244.88-11.15L244.88-11.15ZM238.73-42.05Q237.58-42.05 236.13-37.9 234.68-33.75 233.58-27.6 232.48-21.45 232.38-15.8L232.38-15.8Q235.93-21.65 238.03-27.53 240.13-33.4 240.13-38.25L240.13-38.25Q240.13-42.05 238.73-42.05L238.73-42.05ZM264.52-11.15Q265.17-11.15 265.55-10.55 265.92-9.95 265.92-8.9L265.92-8.9Q265.92-6.9 264.97-5.8L264.97-5.8Q263.12-3.55 259.75-1.65 256.37 0.25 252.52 0.25L252.52 0.25Q247.27 0.25 244.37-2.6 241.47-5.45 241.47-10.4L241.47-10.4Q241.47-13.85 242.92-16.82 244.37-19.8 246.95-21.55 249.52-23.3 252.77-23.3L252.77-23.3Q255.67-23.3 257.42-21.58 259.17-19.85 259.17-16.9L259.17-16.9Q259.17-13.45 256.7-10.98 254.22-8.5 248.32-7.05L248.32-7.05Q249.57-4.75 253.07-4.75L253.07-4.75Q255.32-4.75 258.2-6.33 261.07-7.9 263.17-10.45L263.17-10.45Q263.77-11.15 264.52-11.15L264.52-11.15ZM251.92-18.4Q250.07-18.4 248.8-16.25 247.52-14.1 247.52-11.05L247.52-11.05 247.52-10.95Q250.47-11.65 252.17-13.05 253.87-14.45 253.87-16.3L253.87-16.3Q253.87-17.25 253.35-17.82 252.82-18.4 251.92-18.4L251.92-18.4ZM271.17 1.35Q268.57 1.35 267.2 0.15 265.82-1.05 265.82-2.55L265.82-2.55Q265.82-3.85 266.77-4.8 267.72-5.75 269.57-5.75L269.57-5.75Q270.22-5.75 271.1-5.63 271.97-5.5 272.42-5.45L272.42-5.45Q272.37-6.75 271.85-7.9 271.32-9.05 270.52-10.13 269.72-11.2 269.02-12L269.02-12Q267.47-9.05 265.95-7.1 264.42-5.15 262.62-3.4L262.62-3.4Q261.72-2.5 260.72-2.5L260.72-2.5Q259.92-2.5 259.42-3.08 258.92-3.65 258.92-4.5L258.92-4.5Q258.92-5.5 259.62-6.35L259.62-6.35 260.27-7.15Q263.02-10.55 264.42-12.75L264.42-12.75Q265.27-14.2 266.42-16.63 267.57-19.05 268.67-21.65L268.67-21.65Q269.62-23.85 272.62-23.85L272.62-23.85Q274.02-23.85 274.57-23.6 275.12-23.35 275.12-22.8L275.12-22.8Q275.12-22.5 274.92-21.85 274.72-21.2 274.37-20.55L274.37-20.55Q273.47-18.75 273.47-17.5L273.47-17.5Q273.47-16.75 274-15.85 274.52-14.95 275.62-13.6L275.62-13.6Q277.22-11.5 278.05-10.03 278.87-8.55 278.87-6.8L278.87-6.8Q278.87-6.3 278.77-5.4L278.77-5.4Q281.22-6.35 284.52-10.45L284.52-10.45Q285.12-11.15 285.87-11.15L285.87-11.15Q286.52-11.15 286.9-10.55 287.27-9.95 287.27-8.9L287.27-8.9Q287.27-7 286.32-5.8L286.32-5.8Q283.82-2.7 281.55-1.58 279.27-0.45 275.92-0.35L275.92-0.35Q273.92 1.35 271.17 1.35L271.17 1.35Z" opacity="1" transform="matrix(1,0,0,1,0,0)" fill="#096a2e" class="wordmark-text-0" data-fill-palette-color="primary" id="text-0"></path></svg></g></svg></g></svg></g></svg></g></svg></g></svg></g></svg></g><g><path d="M0 123.6c0-68.262 55.338-123.6 123.6-123.6 55.412 0 102.307 36.464 118 86.706l-2.824 0c-15.598-48.732-61.267-84.014-115.176-84.014-66.776 0-120.908 54.132-120.908 120.908 0 66.776 54.132 120.908 120.908 120.908 53.909 0 99.578-35.282 115.176-84.014l2.824 0c-15.692 50.242-62.588 86.706-118 86.706-68.262 0-123.6-55.338-123.6-123.6z" fill="#196537" stroke="transparent" data-fill-palette-color="tertiary"></path></g></svg></g><defs></defs></svg><rect width="395.52" height="247.2" fill="none" stroke="none" visibility="hidden"></rect></g></svg></g></svg>